<mxfile host="app.diagrams.net" modified="2022-12-18T12:08:35.562Z" agent="5.0 (Macintosh; Intel Mac OS X 10_15_7) AppleWebKit/605.1.15 (KHTML, like Gecko) Version/15.6.1 Safari/605.1.15" version="20.7.4" etag="8m_3FLdq2sUaEhBemQxw" type="github">
  <diagram id="keswcrokIcXYEf1hAh7d" name="페이지-1">
    <mxGraphModel dx="454" dy="651" grid="1" gridSize="10" guides="1" tooltips="1" connect="1" arrows="1" fold="1" page="1" pageScale="1" pageWidth="827" pageHeight="1169" math="0" shadow="0">
      <root>
        <mxCell id="0" />
        <mxCell id="1" parent="0" />
        <mxCell id="q_SYllS7mjCBKzGUIhgG-7" style="edgeStyle=orthogonalEdgeStyle;rounded=0;orthogonalLoop=1;jettySize=auto;html=1;exitX=0.5;exitY=0;exitDx=0;exitDy=0;" edge="1" parent="1" source="q_SYllS7mjCBKzGUIhgG-2" target="q_SYllS7mjCBKzGUIhgG-5">
          <mxGeometry relative="1" as="geometry" />
        </mxCell>
        <mxCell id="q_SYllS7mjCBKzGUIhgG-2" value="List" style="rounded=0;whiteSpace=wrap;html=1;" vertex="1" parent="1">
          <mxGeometry x="200" y="525" width="80" height="25" as="geometry" />
        </mxCell>
        <mxCell id="q_SYllS7mjCBKzGUIhgG-8" style="edgeStyle=orthogonalEdgeStyle;rounded=0;orthogonalLoop=1;jettySize=auto;html=1;exitX=0.5;exitY=0;exitDx=0;exitDy=0;" edge="1" parent="1" source="q_SYllS7mjCBKzGUIhgG-3" target="q_SYllS7mjCBKzGUIhgG-5">
          <mxGeometry relative="1" as="geometry" />
        </mxCell>
        <mxCell id="q_SYllS7mjCBKzGUIhgG-3" value="Set" style="rounded=0;whiteSpace=wrap;html=1;" vertex="1" parent="1">
          <mxGeometry x="360" y="525" width="80" height="25" as="geometry" />
        </mxCell>
        <mxCell id="q_SYllS7mjCBKzGUIhgG-5" value="Collection" style="rounded=0;whiteSpace=wrap;html=1;" vertex="1" parent="1">
          <mxGeometry x="280" y="460" width="80" height="25" as="geometry" />
        </mxCell>
        <mxCell id="q_SYllS7mjCBKzGUIhgG-6" value="Map" style="rounded=0;whiteSpace=wrap;html=1;" vertex="1" parent="1">
          <mxGeometry x="450" y="485" width="80" height="25" as="geometry" />
        </mxCell>
        <mxCell id="q_SYllS7mjCBKzGUIhgG-11" value="Vector" style="rounded=1;whiteSpace=wrap;html=1;" vertex="1" parent="1">
          <mxGeometry x="140" y="585" width="50" height="20" as="geometry" />
        </mxCell>
        <mxCell id="q_SYllS7mjCBKzGUIhgG-12" value="ArrayList" style="rounded=1;whiteSpace=wrap;html=1;" vertex="1" parent="1">
          <mxGeometry x="205" y="585" width="70" height="20" as="geometry" />
        </mxCell>
      </root>
    </mxGraphModel>
  </diagram>
</mxfile>
